<?xml version="1.0" standalone="no"?>
<!DOCTYPE svg PUBLIC "-//W3C//DTD SVG 20010904//EN"
 "http://www.w3.org/TR/2001/REC-SVG-20010904/DTD/svg10.dtd">
<svg version="1.0" xmlns="http://www.w3.org/2000/svg"
 width="256.000000pt" height="257.000000pt" viewBox="0 0 256.000000 257.000000"
 preserveAspectRatio="xMidYMid meet">

<g transform="translate(0.000000,257.000000) scale(0.100000,-0.100000)"
fill="#000000" stroke="none">
<path d="M1158 2238 c2 -29 5 -54 6 -54 0 -1 21 1 46 5 l45 6 0 45 0 45 -51 3
-51 3 5 -53z m73 27 c0 -5 -12 -11 -26 -13 -18 -2 -25 1 -25 13 0 12 7 15 25
13 14 -2 26 -7 26 -13z m9 -51 c0 -9 -11 -14 -30 -14 -36 0 -42 27 -7 32 28 5
37 1 37 -18z"/>
<path d="M1306 2243 c-15 -25 -24 -49 -20 -52 3 -3 10 2 15 12 6 9 21 17 34
17 13 0 28 -8 34 -17 5 -10 12 -15 15 -12 10 9 -27 99 -40 99 -7 0 -24 -21
-38 -47z m44 2 c0 -8 -7 -15 -15 -15 -9 0 -12 6 -9 15 4 8 10 15 15 15 5 0 9
-7 9 -15z"/>
<path d="M1431 2236 c-13 -54 -13 -56 -3 -56 5 0 13 17 18 37 l9 38 25 -48
c14 -26 30 -47 36 -47 5 0 15 23 20 50 6 28 7 50 2 50 -5 0 -11 -13 -14 -30
-4 -16 -9 -30 -13 -30 -3 0 -16 18 -29 40 -12 22 -26 40 -31 40 -5 0 -14 -20
-20 -44z"/>
<path d="M1000 2233 c0 -10 -3 -35 -6 -55 -5 -25 -3 -38 5 -38 6 0 11 7 11 15
0 21 42 37 55 21 6 -7 16 -11 23 -8 10 3 2 17 -24 43 -41 42 -64 50 -64 22z
m38 -31 c2 -7 -3 -12 -12 -12 -9 0 -16 7 -16 16 0 17 22 14 28 -4z"/>
<path d="M1577 2212 c-24 -26 -21 -47 9 -71 32 -25 69 -27 78 -4 7 17 -9 33
-33 33 -11 0 -9 -4 5 -15 18 -14 18 -14 -7 -15 -32 0 -53 22 -44 49 8 28 34
34 62 15 30 -19 45 -10 17 11 -26 20 -68 19 -87 -3z"/>
<path d="M863 2193 l-31 -16 21 -43 c21 -44 44 -61 32 -24 -8 25 15 36 45 20
25 -13 42 -4 20 10 -8 5 -15 22 -15 37 0 34 -25 40 -72 16z m57 -11 c0 -14
-23 -32 -42 -32 -20 0 -25 26 -5 33 20 8 47 8 47 -1z"/>
<path d="M1713 2153 c-4 -11 3 -23 20 -37 15 -12 27 -25 27 -29 0 -16 -40 -6
-53 14 -9 11 -18 16 -21 11 -7 -12 40 -52 59 -52 7 0 18 7 25 15 11 13 9 20
-13 43 -15 16 -27 31 -27 35 0 14 28 6 45 -13 10 -11 20 -18 23 -15 3 3 -3 14
-13 25 -22 24 -63 26 -72 3z"/>
<path d="M750 2120 c-19 -16 -30 -29 -23 -30 6 0 15 5 19 12 5 7 19 -2 41 -28
37 -44 45 -30 11 17 -23 30 -23 31 -4 45 15 10 16 14 5 14 -8 0 -30 -13 -49
-30z"/>
<path d="M1145 2120 c-363 -72 -625 -391 -625 -760 0 -142 42 -292 114 -405
41 -63 85 -101 154 -133 48 -22 64 -24 145 -20 73 3 105 10 157 33 164 72 391
257 591 481 161 181 172 194 159 194 -7 0 -25 13 -40 30 l-28 30 -72 -80 c-40
-44 -76 -80 -81 -80 -5 0 -9 77 -9 171 l0 171 -28 -7 c-23 -5 -46 7 -137 70
-61 41 -113 75 -117 75 -5 0 -8 -22 -8 -48 l0 -49 88 -58 87 -59 -31 -9 c-28
-8 -40 -2 -143 67 -61 42 -114 76 -116 76 -3 0 -5 -22 -5 -50 l0 -50 80 -52
c44 -29 80 -56 80 -60 0 -4 -11 -10 -24 -14 -19 -4 -47 10 -128 63 -56 38
-109 73 -115 77 -10 5 -13 -6 -13 -46 l1 -53 54 -34 c29 -19 66 -44 82 -57
l28 -22 -28 -7 c-24 -6 -45 4 -143 69 l-114 76 0 -52 0 -53 81 -54 c56 -38 76
-57 67 -62 -27 -17 -51 -7 -161 66 l-112 75 -5 -266 -5 -267 -32 34 c-53 53
-75 126 -81 261 -4 106 -2 126 21 200 60 189 218 344 403 393 77 21 231 21
308 0 126 -33 277 -141 333 -236 10 -16 22 -28 27 -26 17 6 71 91 85 135 l14
43 -49 50 c-153 158 -349 240 -563 238 -58 -1 -124 -5 -146 -9z"/>
<path d="M1823 2069 c-24 -12 -43 -25 -43 -31 0 -5 5 -6 11 -2 18 11 61 -18
56 -38 -6 -21 9 -34 16 -14 11 29 19 106 11 106 -5 0 -28 -9 -51 -21z m33 -25
c-5 -14 -9 -15 -19 -5 -9 9 -9 14 3 21 18 11 24 6 16 -16z"/>
<path d="M687 2074 c-7 -7 53 -84 66 -84 14 0 6 15 -27 52 -18 21 -36 35 -39
32z"/>
<path d="M636 2032 c-3 -5 -1 -24 5 -41 14 -40 11 -43 -29 -32 -20 6 -34 6
-38 -1 -8 -13 56 -79 69 -71 6 3 -2 17 -18 30 l-28 24 38 -7 37 -7 -7 32 c-7
35 0 39 27 14 36 -33 27 -6 -11 31 -21 21 -41 33 -45 28z"/>
<path d="M2070 1934 c-36 -13 -75 -23 -86 -24 -15 0 -24 -8 -29 -27 -11 -48
-82 -186 -120 -236 -20 -26 -33 -52 -30 -57 11 -18 74 71 132 188 30 61 61
112 68 112 18 0 96 35 120 54 24 19 26 19 -55 -10z"/>
<path d="M497 1852 c-15 -17 -21 -35 -18 -59 2 -20 36 -15 56 7 10 11 22 20
27 20 13 0 9 -27 -7 -40 -19 -16 -20 -31 -1 -24 18 7 40 59 31 73 -10 18 -44
12 -57 -9 -13 -21 -38 -27 -38 -10 0 6 9 19 20 30 10 10 16 22 11 24 -5 3 -15
-2 -24 -12z"/>
<path d="M2100 1784 c-49 -37 -241 -236 -235 -243 3 -2 39 29 82 69 43 40 103
90 134 111 37 25 59 47 63 65 4 14 5 28 4 30 -2 1 -24 -13 -48 -32z"/>
<path d="M1937 1708 c-83 -106 -121 -158 -113 -158 3 0 48 56 100 125 52 69
93 125 91 125 -3 0 -38 -42 -78 -92z"/>
<path d="M485 1722 c-27 -2 -54 -7 -59 -12 -10 -10 63 -92 76 -84 5 3 4 12 -2
19 -14 17 -4 55 15 55 13 0 32 19 24 23 -2 1 -26 1 -54 -1z m5 -31 c0 -18 -18
-21 -30 -6 -10 13 -9 15 9 15 11 0 21 -4 21 -9z"/>
<path d="M390 1628 c0 -7 -3 -31 -5 -53 -5 -33 -4 -36 5 -17 7 16 16 22 27 18
50 -15 73 -17 73 -8 0 5 -20 15 -44 21 -37 9 -43 14 -39 31 3 11 0 20 -6 20
-6 0 -11 -6 -11 -12z"/>
<path d="M1964 1588 c-68 -71 -162 -186 -178 -215 -23 -47 -36 -161 -26 -238
17 -130 12 -224 -14 -280 -48 -104 -175 -189 -326 -221 -142 -30 -338 -6 -484
60 -77 34 -68 43 11 11 150 -61 328 -77 461 -42 157 42 277 136 308 243 15 53
15 60 -5 148 -23 100 -26 153 -11 206 l9 35 -27 -31 c-15 -17 -54 -61 -86 -98
-75 -85 -82 -124 -41 -251 27 -84 27 -85 8 -122 -38 -79 -170 -133 -325 -133
-86 0 -236 29 -302 59 -26 11 -54 17 -63 14 -10 -4 -14 -2 -10 4 4 6 -1 10
-11 9 -9 0 -16 5 -14 12 1 8 -2 11 -8 7 -7 -4 -21 1 -33 12 -35 30 -57 46 -57
40 0 -14 154 -120 220 -151 127 -60 223 -79 370 -73 135 5 203 22 315 79 281
141 456 467 416 772 -12 92 -37 186 -49 186 -4 0 -26 -19 -48 -42z"/>
<path d="M370 1511 c0 -6 11 -13 25 -16 14 -3 36 -7 50 -10 14 -3 25 -1 25 4
0 5 -15 12 -32 16 -18 4 -41 9 -50 11 -10 3 -18 1 -18 -5z"/>
<path d="M364 1436 c-9 -38 -1 -61 23 -64 17 -3 24 3 30 27 11 41 29 35 26 -9
-2 -26 0 -31 7 -20 16 24 12 77 -6 84 -23 9 -24 9 -40 -29 -8 -19 -19 -35 -25
-35 -7 0 -9 12 -5 35 8 39 0 48 -10 11z"/>
<path d="M367 1323 c-4 -3 -7 -26 -7 -50 l0 -43 49 0 c28 0 53 5 56 10 4 6 -5
10 -19 10 -33 0 -34 25 -3 50 12 10 19 22 15 26 -4 4 -15 1 -24 -7 -13 -11
-18 -11 -21 -1 -5 13 -35 17 -46 5z m41 -46 c2 -19 -1 -27 -12 -27 -17 0 -31
34 -21 50 11 18 30 5 33 -23z"/>
<path d="M467 1170 c5 -33 3 -40 -11 -40 -9 0 -16 8 -16 20 0 11 -5 20 -10 20
-6 0 -8 -11 -4 -25 11 -42 -22 -31 -35 13 -11 37 -11 37 -6 -12 3 -27 6 -51 8
-52 2 -2 88 18 95 22 7 4 -11 94 -18 94 -5 0 -6 -18 -3 -40z"/>
<path d="M410 1050 c0 -5 18 -10 40 -10 22 0 40 -3 40 -7 0 -4 -12 -19 -27
-35 -42 -44 -17 -46 27 -3 22 22 37 42 32 46 -13 12 -112 20 -112 9z"/>
<path d="M1416 986 c-73 -74 -90 -114 -82 -187 7 -55 6 -59 -20 -75 -19 -13
-56 -20 -128 -24 l-101 -6 86 -8 c155 -15 310 28 345 96 15 29 15 34 -12 102
-16 39 -29 90 -29 114 0 23 -2 42 -3 42 -2 0 -27 -24 -56 -54z"/>
<path d="M518 950 c-39 -21 -57 -40 -37 -40 17 0 79 40 79 51 0 11 2 12 -42
-11z"/>
<path d="M537 893 c-20 -14 -37 -30 -37 -35 0 -10 16 -3 43 20 24 21 27 14 15
-41 -5 -27 -8 -51 -5 -53 7 -7 87 46 87 57 0 14 -16 10 -30 -6 -24 -29 -39
-18 -29 23 17 72 12 75 -44 35z"/>
<path d="M617 772 c-35 -37 -22 -51 14 -16 50 48 92 4 44 -46 -37 -39 -24 -52
15 -15 36 35 38 54 7 83 -31 29 -48 28 -80 -6z"/>
<path d="M1048 703 c7 -3 16 -2 19 1 4 3 -2 6 -13 5 -11 0 -14 -3 -6 -6z"/>
<path d="M560 409 c0 -68 11 -106 34 -121 6 -4 38 -8 72 -8 82 0 91 11 96 118
3 76 2 82 -17 82 -18 0 -20 -6 -17 -69 4 -79 -9 -101 -63 -101 -54 0 -67 22
-63 101 3 66 2 69 -19 69 -22 0 -23 -4 -23 -71z"/>
<path d="M900 380 c0 -93 1 -100 20 -100 18 0 20 7 20 68 l1 67 33 -57 c18
-32 35 -60 38 -64 4 -3 23 25 45 63 42 74 48 70 41 -28 -3 -45 -1 -49 20 -49
21 0 22 3 22 100 l0 100 -28 0 c-24 0 -32 -7 -46 -37 -9 -21 -25 -48 -34 -61
l-18 -23 -29 60 c-26 51 -34 60 -57 61 l-28 0 0 -100z"/>
<path d="M1275 380 c0 -97 1 -100 23 -100 21 0 22 3 22 100 0 97 -1 100 -22
100 -22 0 -23 -3 -23 -100z"/>
<path d="M1455 380 l0 -100 86 0 c71 0 89 3 102 18 22 24 22 68 1 80 -11 6
-13 11 -5 16 15 9 14 59 -1 74 -7 7 -44 12 -97 12 l-86 0 0 -100z m153 48 c-3
-20 -10 -23 -55 -26 -51 -3 -53 -2 -53 22 0 25 3 26 56 26 52 0 55 -1 52 -22z
m10 -82 c5 -26 -15 -36 -70 -36 -47 0 -48 1 -48 30 l0 31 57 -3 c47 -2 58 -6
61 -22z"/>
<path d="M1815 388 c-22 -51 -41 -96 -43 -100 -2 -4 9 -8 24 -8 15 0 24 3 21
6 -3 4 -2 15 4 25 7 15 21 19 59 19 45 0 50 -3 56 -25 5 -19 13 -25 35 -25
l28 0 -47 99 c-41 87 -50 100 -72 100 -22 1 -30 -10 -65 -91z m80 12 c20 -39
20 -40 -15 -40 -16 0 -30 4 -30 10 0 10 22 60 26 60 2 0 10 -13 19 -30z"/>
</g>
</svg>
